<?xml version="1.0" encoding="iso-8859-1"?>
<!-- Generator: Adobe Illustrator 19.1.0, SVG Export Plug-In . SVG Version: 6.00 Build 0)  -->
<svg version="1.1" id="Capa_1" xmlns="http://www.w3.org/2000/svg" xmlns:xlink="http://www.w3.org/1999/xlink" x="0px" y="0px"
	 viewBox="0 0 508.82 508.82" style="enable-background:new 0 0 508.82 508.82;" xml:space="preserve">
<g>
	<g>
		<path style="fill:#231F20;" d="M254.41,508.82C114.378,508.82,0,394.442,0,254.41S114.378,0,254.41,0
			s254.41,114.378,254.41,254.41S394.442,508.82,254.41,508.82z M254.41,31C131.481,31,32.069,130.412,32.069,253.341
			s99.412,222.342,222.342,222.342s222.341-99.412,222.341-222.342S377.339,31,254.41,31z"/>
		<g>
			<path style="fill:#231F20;" d="M360.236,269.375H254.41c-8.552,0-16.034-7.483-16.034-16.034V147.515
				c0-8.552,7.483-16.034,16.034-16.034s16.034,7.483,16.034,16.034v89.792h89.792c8.552,0,16.034,7.483,16.034,16.034
				C376.27,262.962,368.788,269.375,360.236,269.375z"/>
			<path style="fill:#231F20;" d="M254.41,375.201c-8.552,0-16.034-7.483-16.034-16.034v-89.792h-89.792
				c-8.552,0-16.034-7.483-16.034-16.034s7.483-16.034,16.034-16.034H254.41c8.552,0,16.034,7.483,16.034,16.034v105.826
				C270.444,368.788,262.962,375.201,254.41,375.201z"/>
		</g>
	</g>
</g>
<g>
</g>
<g>
</g>
<g>
</g>
<g>
</g>
<g>
</g>
<g>
</g>
<g>
</g>
<g>
</g>
<g>
</g>
<g>
</g>
<g>
</g>
<g>
</g>
<g>
</g>
<g>
</g>
<g>
</g>
</svg>
